<svg width="207" height="55" viewBox="0 0 207 55" fill="none" xmlns="http://www.w3.org/2000/svg">
<path fill-rule="evenodd" clip-rule="evenodd" d="M21.8384 36.3387C26.7197 31.4575 26.7197 23.5425 21.8384 18.6612C16.9572 13.78 9.04219 13.78 4.16094 18.6612C-0.720312 23.5425 -0.720312 31.4575 4.16094 36.3387C9.04219 41.22 16.9572 41.22 21.8384 36.3387ZM22.9284 26.3012C22.6632 24.0782 21.6565 22.0093 20.0709 20.4287C18.4845 18.8374 16.4065 17.8295 14.1747 17.5687L14.1622 17.6387C13.6548 20.3753 12.3296 22.8938 10.3616 24.8619C8.3935 26.8299 5.87504 28.1551 3.13844 28.6625L3.06844 28.675C3.3292 30.9068 4.33714 32.9848 5.92844 34.5712C7.50903 36.1568 9.57786 37.1635 11.8009 37.4287L11.8159 37.3412C12.3231 34.6044 13.6482 32.0857 15.6163 30.1174C17.5843 28.1491 20.1029 26.8237 22.8397 26.3162L22.9272 26.3012H22.9284ZM22.8397 29.2862V28.8687C20.7739 29.3411 18.8832 30.3866 17.3847 31.885C15.8863 33.3835 14.8408 35.2742 14.3684 37.34H14.7859C16.7892 36.9791 18.6338 36.0128 20.0709 34.5712C21.5125 33.1341 22.4789 31.2896 22.8397 29.2862ZM3.13969 26.1112V25.8325C3.48283 23.7844 4.45793 21.895 5.92844 20.4287C7.39457 18.9578 9.28401 17.9823 11.3322 17.6387H11.6097C11.1373 19.7045 10.0918 21.5952 8.59338 23.0937C7.09493 24.5921 5.20424 25.6376 3.13844 26.11L3.13969 26.1112Z" fill="white"/>
<path d="M44.7794 37.416C43.7047 37.416 42.6734 37.338 41.6854 37.182C40.6974 37.026 39.7961 36.8093 38.9814 36.532C38.1841 36.2373 37.4907 35.9167 36.9014 35.57L39.2674 31.046C39.9434 31.4273 40.6194 31.748 41.2954 32.008C41.9887 32.2507 42.6734 32.4327 43.3494 32.554C44.0427 32.6753 44.7274 32.736 45.4034 32.736C45.9407 32.736 46.3827 32.6927 46.7294 32.606C47.0934 32.5193 47.3621 32.398 47.5354 32.242C47.7261 32.0687 47.8214 31.878 47.8214 31.67C47.8214 31.3927 47.6654 31.1673 47.3534 30.994C47.0414 30.8207 46.6254 30.6647 46.1054 30.526C45.6027 30.3873 45.0394 30.2487 44.4154 30.11C43.8087 29.954 43.1934 29.7633 42.5694 29.538C41.9454 29.2953 41.3734 28.992 40.8534 28.628C40.3507 28.264 39.9434 27.8047 39.6314 27.25C39.3194 26.6953 39.1634 26.0193 39.1634 25.222C39.1634 23.8353 39.5274 22.6307 40.2554 21.608C41.0007 20.5853 42.0581 19.7967 43.4274 19.242C44.8141 18.67 46.4607 18.384 48.3674 18.384C49.7194 18.384 50.9761 18.5227 52.1374 18.8C53.3161 19.06 54.3301 19.4413 55.1794 19.944L52.9694 24.416C52.2414 23.9653 51.4441 23.6273 50.5774 23.402C49.7281 23.1767 48.8614 23.064 47.9774 23.064C47.3881 23.064 46.8941 23.1247 46.4954 23.246C46.0967 23.35 45.7934 23.4973 45.5854 23.688C45.3947 23.8787 45.2994 24.078 45.2994 24.286C45.2994 24.5633 45.4554 24.7973 45.7674 24.988C46.0794 25.1613 46.4954 25.3173 47.0154 25.456C47.5354 25.5773 48.0987 25.716 48.7054 25.872C49.3294 26.0107 49.9447 26.1927 50.5514 26.418C51.1754 26.626 51.7474 26.912 52.2674 27.276C52.7874 27.6227 53.2034 28.0733 53.5154 28.628C53.8274 29.1653 53.9834 29.8327 53.9834 30.63C53.9834 31.982 53.6107 33.1693 52.8654 34.192C52.1201 35.1973 51.0541 35.986 49.6674 36.558C48.2981 37.13 46.6687 37.416 44.7794 37.416ZM63.8173 37.416C61.9279 37.416 60.3506 37.0607 59.0853 36.35C57.8199 35.622 56.9186 34.6167 56.3813 33.334C55.8613 32.034 55.7746 30.526 56.1213 28.81L58.1233 18.8H64.2593L62.2833 28.706C62.1619 29.3473 62.1186 29.902 62.1533 30.37C62.1879 30.838 62.3006 31.228 62.4913 31.54C62.6993 31.852 62.9766 32.086 63.3233 32.242C63.6699 32.3807 64.0859 32.45 64.5713 32.45C65.1606 32.45 65.6633 32.3287 66.0793 32.086C66.5126 31.8433 66.8679 31.4447 67.1453 30.89C67.4399 30.3353 67.6739 29.6073 67.8473 28.706L69.8233 18.8H75.8553L73.8013 29.07C73.2639 31.7913 72.1633 33.8627 70.4993 35.284C68.8353 36.7053 66.6079 37.416 63.8173 37.416ZM75.028 37L78.668 18.8H83.712L90.55 29.876H88.418L90.628 18.8H96.608L92.968 37H87.924L81.086 25.924H83.218L81.008 37H75.028ZM107.671 37L110.349 23.558H105.019L105.981 18.8H122.777L121.815 23.558H116.485L113.807 37H107.671ZM128.635 25.56H136.747L135.863 29.98H127.751L128.635 25.56ZM127.673 32.372H136.799L135.863 37H120.731L124.371 18.8H139.165L138.229 23.428H129.467L127.673 32.372ZM138.225 37L141.865 18.8H146.909L153.747 29.876H151.615L153.825 18.8H159.805L156.165 37H151.121L144.283 25.924H146.415L144.205 37H138.225ZM159.122 37L162.762 18.8H167.806L174.644 29.876H172.512L174.722 18.8H180.702L177.062 37H172.018L165.18 25.924H167.312L165.102 37H159.122ZM180.018 37L183.658 18.8H189.794L186.154 37H180.018ZM196.336 37.416C195.261 37.416 194.23 37.338 193.242 37.182C192.254 37.026 191.353 36.8093 190.538 36.532C189.741 36.2373 189.047 35.9167 188.458 35.57L190.824 31.046C191.5 31.4273 192.176 31.748 192.852 32.008C193.545 32.2507 194.23 32.4327 194.906 32.554C195.599 32.6753 196.284 32.736 196.96 32.736C197.497 32.736 197.939 32.6927 198.286 32.606C198.65 32.5193 198.919 32.398 199.092 32.242C199.283 32.0687 199.378 31.878 199.378 31.67C199.378 31.3927 199.222 31.1673 198.91 30.994C198.598 30.8207 198.182 30.6647 197.662 30.526C197.159 30.3873 196.596 30.2487 195.972 30.11C195.365 29.954 194.75 29.7633 194.126 29.538C193.502 29.2953 192.93 28.992 192.41 28.628C191.907 28.264 191.5 27.8047 191.188 27.25C190.876 26.6953 190.72 26.0193 190.72 25.222C190.72 23.8353 191.084 22.6307 191.812 21.608C192.557 20.5853 193.615 19.7967 194.984 19.242C196.371 18.67 198.017 18.384 199.924 18.384C201.276 18.384 202.533 18.5227 203.694 18.8C204.873 19.06 205.887 19.4413 206.736 19.944L204.526 24.416C203.798 23.9653 203.001 23.6273 202.134 23.402C201.285 23.1767 200.418 23.064 199.534 23.064C198.945 23.064 198.451 23.1247 198.052 23.246C197.653 23.35 197.35 23.4973 197.142 23.688C196.951 23.8787 196.856 24.078 196.856 24.286C196.856 24.5633 197.012 24.7973 197.324 24.988C197.636 25.1613 198.052 25.3173 198.572 25.456C199.092 25.5773 199.655 25.716 200.262 25.872C200.886 26.0107 201.501 26.1927 202.108 26.418C202.732 26.626 203.304 26.912 203.824 27.276C204.344 27.6227 204.76 28.0733 205.072 28.628C205.384 29.1653 205.54 29.8327 205.54 30.63C205.54 31.982 205.167 33.1693 204.422 34.192C203.677 35.1973 202.611 35.986 201.224 36.558C199.855 37.13 198.225 37.416 196.336 37.416Z" fill="white"/>
</svg>
